<?xml version="1.0" encoding="iso-8859-1"?>
<!-- Generator: Adobe Illustrator 19.0.0, SVG Export Plug-In . SVG Version: 6.00 Build 0)  -->
<svg version="1.1" id="Capa_1" xmlns="http://www.w3.org/2000/svg" xmlns:xlink="http://www.w3.org/1999/xlink" x="0px" y="0px"
	 viewBox="0 0 512 512" style="enable-background:new 0 0 512 512;" xml:space="preserve">
<g>
	<g>
		<g>
			<path d="M510.862,217.85L444.604,28.558C438.599,11.461,422.459,0.014,404.338,0H107.663
				C89.541,0.014,73.401,11.461,67.396,28.558L1.138,217.85c-0.715,1.22-1.107,2.603-1.138,4.017V332.8
				c0.02,6.069,3.272,11.668,8.533,14.693V358.4c0,14.138,11.462,25.6,25.6,25.6s25.6-11.461,25.6-25.6v-8.533h29.36l-28.881,82.517
				c-0.225,0.733-0.349,1.494-0.367,2.26c-0.013,0.194-0.112,0.358-0.112,0.556v29.183c0.005,6.123,3.286,11.776,8.6,14.817
				l55.433,31.675c0.192,0.11,0.41,0.156,0.609,0.25c0.225,0.108,0.447,0.194,0.683,0.282c0.937,0.372,1.934,0.573,2.942,0.593
				h332.288c9.421-0.011,17.056-7.645,17.067-17.067v-25.6c0-1.121-0.221-2.231-0.65-3.267l-0.018-0.044L476.677,466L428.58,349.867
				h23.686v8.533c0,14.138,11.462,25.6,25.6,25.6s25.6-11.461,25.6-25.6v-10.907c5.262-3.025,8.513-8.624,8.533-14.693V221.867
				C511.969,220.453,511.577,219.07,510.862,217.85z M83.504,34.208c3.6-10.261,13.284-17.133,24.158-17.142h296.675
				c10.874,0.009,20.559,6.88,24.158,17.142L491.2,213.333H20.8L83.504,34.208z M42.667,358.4c0,4.713-3.82,8.533-8.533,8.533
				s-8.533-3.82-8.533-8.533v-8.533h17.067V358.4z M119.467,488.763L76.8,464.383v-14.479l42.667,24.38V488.763z M460.288,494.933
				H136.533v-17.067h323.754V494.933z M243.005,418.558c-0.607-0.197-1.234-0.324-1.87-0.377c-0.085-0.002-0.154-0.048-0.239-0.048
				h-34.133c-0.085,0-0.155,0.046-0.239,0.048c-0.638,0.053-1.268,0.181-1.877,0.379c-0.463,0.079-0.918,0.196-1.362,0.349
				c-0.911,0.586-1.797,1.21-2.655,1.871c-0.301,0.375-0.57,0.773-0.804,1.193c-0.387,0.504-0.715,1.052-0.977,1.631
				c-0.03,0.077-0.095,0.126-0.122,0.204L185.558,460.8h-28.406l24.233-68.267h174.829l24.233,68.267H262.034l-13.092-36.984
				c-0.03-0.084-0.1-0.138-0.132-0.221c-0.26-0.573-0.586-1.115-0.969-1.615c-0.234-0.418-0.503-0.816-0.803-1.19
				C246.011,419.58,244.577,418.785,243.005,418.558z M243.924,460.8h-40.257l9.112-25.6h22.082L243.924,460.8z M456.049,460.8
				H398.56l-28.277-79.659c-0.029-0.081-0.097-0.133-0.128-0.213c-0.264-0.582-0.595-1.132-0.986-1.638
				c-0.934-1.227-2.1-2.258-3.432-3.035c-0.476-0.17-0.966-0.296-1.465-0.378c-0.581-0.185-1.18-0.306-1.786-0.359
				c-0.086-0.003-0.158-0.05-0.244-0.05H175.358c-0.091,0-0.166,0.049-0.256,0.052c-0.59,0.054-1.172,0.172-1.737,0.35
				c-2.107,0.271-3.95,1.55-4.94,3.429c-0.388,0.504-0.718,1.051-0.981,1.63c-0.031,0.08-0.099,0.132-0.128,0.213L139.04,460.8
				h-8.773l-51.6-29.483l55.386-158.25h59.069l-23.671,74.208c-0.057,0.874-0.193,1.742-0.405,2.592
				c0,0.135,0.071,0.247,0.077,0.381c0.054,0.599,0.173,1.191,0.356,1.765c0.143,1.053,0.611,2.035,1.338,2.809
				c0.52,0.927,1.317,1.67,2.278,2.124c0.482,0.342,1.001,0.63,1.545,0.86c0.128,0.048,0.216,0.152,0.347,0.194
				c0.834,0.264,1.703,0.398,2.578,0.398l0.014,0.002h165.463c0.883-0.001,1.76-0.139,2.6-0.408c0.124-0.04,0.207-0.137,0.328-0.182
				c0.563-0.236,1.099-0.534,1.596-0.89c0.436-0.242,0.851-0.521,1.239-0.834c1.234-1.044,2.062-2.489,2.34-4.081
				c0.183-0.573,0.302-1.164,0.356-1.763c0.006-0.131,0.076-0.242,0.076-0.375c-0.212-0.853-0.347-1.723-0.404-2.6l-23.745-74.2
				h50.869L456.049,460.8z M110,290.133H76.8v-17.067h39.173L110,290.133z M323.157,315.733l8.192,25.6H189.257l8.166-25.6H323.157z
				 M202.868,298.667l8.166-25.6h98.469l8.192,25.6H202.868z M396.774,273.067H435.2v17.067h-31.358L396.774,273.067z M486.4,358.4
				c0,4.713-3.82,8.533-8.533,8.533s-8.533-3.82-8.533-8.533v-8.533H486.4V358.4z M494.933,332.8h-73.421l-10.602-25.6h24.29
				c9.421-0.011,17.056-7.645,17.067-17.067v-17.067c-0.011-9.421-7.645-17.056-17.067-17.067H76.8
				c-9.421,0.011-17.056,7.646-17.067,17.067v17.067c0.011,9.421,7.645,17.056,17.067,17.067h27.227l-8.96,25.6h-78V230.4h477.867
				V332.8z"/>
			<path d="M376.796,136.675c-3.414-10.226-12.957-17.144-23.738-17.208H158.942c-10.78,0.064-20.324,6.982-23.738,17.208
				l-5.804,17.067c-2.697,7.926-1.415,16.666,3.446,23.484c4.641,6.607,12.217,10.53,20.292,10.508h205.725
				c8.074,0.022,15.651-3.901,20.292-10.508c4.861-6.817,6.143-15.557,3.446-23.484L376.796,136.675z M365.279,167.292
				c-1.461,2.103-3.855,3.363-6.416,3.375H153.138c-2.561-0.012-4.956-1.271-6.417-3.375c-1.677-2.333-2.111-5.338-1.163-8.05
				l5.804-17.067c1.059-3.309,4.106-5.577,7.579-5.642h194.116c3.473,0.065,6.521,2.333,7.579,5.642l5.804,17.067
				C367.39,161.954,366.956,164.959,365.279,167.292z"/>
			<path d="M256,93.867c24.325,0,42.667-11.008,42.667-25.6s-18.342-25.6-42.667-25.6c-24.325,0-42.667,11.008-42.667,25.6
				S231.675,93.867,256,93.867z M256,59.733c16.521,0,25.6,6.409,25.6,8.533S272.521,76.8,256,76.8c-16.521,0-25.6-6.409-25.6-8.533
				S239.479,59.733,256,59.733z"/>
		</g>
	</g>
</g>
<g>
</g>
<g>
</g>
<g>
</g>
<g>
</g>
<g>
</g>
<g>
</g>
<g>
</g>
<g>
</g>
<g>
</g>
<g>
</g>
<g>
</g>
<g>
</g>
<g>
</g>
<g>
</g>
<g>
</g>
</svg>
