<svg height="512pt" viewBox="0 0 512 512.00009" width="512pt" xmlns="http://www.w3.org/2000/svg"><path d="m480.367188 7.5c-4.789063-4.816406-11.308594-7.5195312-18.101563-7.5h-402.53125c-32.976563.0390625-59.6953125 26.757812-59.734375 59.734375v392.53125c0 16.070313 6.492188 31.460937 18.007812 42.667969h-9.472656c-4.714844 0-8.535156 3.820312-8.535156 8.53125 0 4.714844 3.820312 8.535156 8.535156 8.535156h494.929688c4.714844 0 8.535156-3.820312 8.535156-8.535156 0-4.710938-3.820312-8.53125-8.535156-8.53125h-9.46875c11.511718-11.210938 18.007812-26.597656 18.003906-42.667969v-402.527344c.015625-6.792969-2.683594-13.3125-7.5-18.105469zm-96.367188 9.566406v136.535156c-.003906 4.710938-3.820312 8.527344-8.535156 8.53125h-51.199219c-4.710937-.003906-8.527344-3.820312-8.53125-8.53125v-136.535156zm-85.332031 0v136.535156c.015625 14.128907 11.464843 25.582032 25.597656 25.597657h51.199219c14.132812-.015625 25.585937-11.46875 25.601562-25.597657v-136.535156h25.601563v179.199219c-.015625 14.132813-11.46875 25.585937-25.601563 25.601563h-221.867187c-14.132813-.015626-25.582031-11.46875-25.597657-25.601563v-179.199219zm-162.132813 0v179.199219c.03125 9.261719 3.105469 18.257813 8.75 25.601563h-34.351562c-14.132813-.015626-25.585938-11.46875-25.601563-25.601563v-179.199219zm-51.203125 477.867188v-204.800782c.003907-4.710937 3.824219-8.527343 8.535157-8.53125h324.265624c4.710938.003907 8.53125 3.820313 8.535157 8.53125v204.800782zm409.601563-42.667969c-.027344 23.554687-19.113282 42.640625-42.667969 42.667969h-8.53125v-204.800782c-.015625-14.132812-11.46875-25.582031-25.601563-25.597656h-324.265624c-14.132813.015625-25.585938 11.464844-25.601563 25.597656v204.800782h-8.53125c-23.554687-.027344-42.640625-19.113282-42.667969-42.667969v-392.53125c.027344-23.554687 19.113282-42.640625 42.667969-42.667969h8.53125v179.199219c.027344 23.554687 19.113281 42.640625 42.667969 42.667969h290.132812c23.554688-.027344 42.640625-19.113282 42.667969-42.667969v-179.199219h18.53125c2.261719.007813 4.429687.90625 6.035156 2.5l24.132813 24.132813c1.605468 1.601562 2.503906 3.773437 2.5 6.039062zm0 0"/><path d="m213.332031 332.800781c0-10.355469-6.234375-19.691406-15.800781-23.652343-9.566406-3.960938-20.578125-1.773438-27.898438 5.550781-7.324218 7.320312-9.511718 18.332031-5.550781 27.898437 3.960938 9.566406 13.296875 15.800782 23.652344 15.800782 14.132813-.015626 25.582031-11.464844 25.597656-25.597657zm-34.132812 0c0-4.714843 3.820312-8.535156 8.535156-8.535156 4.710937 0 8.53125 3.820313 8.53125 8.535156 0 4.710938-3.820313 8.53125-8.53125 8.53125-4.710937-.003906-8.53125-3.820312-8.535156-8.53125zm0 0"/><path d="m324.265625 307.199219c-14.136719 0-25.597656 11.460937-25.597656 25.601562 0 14.136719 11.460937 25.597657 25.597656 25.597657 14.140625 0 25.601563-11.460938 25.601563-25.597657-.015626-14.132812-11.46875-25.585937-25.601563-25.601562zm0 34.132812c-4.710937 0-8.53125-3.820312-8.53125-8.53125 0-4.714843 3.820313-8.535156 8.53125-8.535156 4.714844 0 8.535156 3.820313 8.535156 8.535156-.003906 4.710938-3.824219 8.527344-8.535156 8.53125zm0 0"/><path d="m321.425781 375.464844h-130.851562c-3.757813 0-7.074219 2.457031-8.164063 6.050781-2.121094 6.953125-3.199218 14.179687-3.210937 21.445313 1.039062 41.671874 35.117187 74.910156 76.800781 74.910156s75.761719-33.238282 76.800781-74.910156c-.007812-7.265626-1.089843-14.492188-3.210937-21.445313-1.089844-3.59375-4.40625-6.050781-8.164063-6.050781zm-98.5625 75.582031c8.082031-10.019531 20.265625-15.847656 33.136719-15.847656 12.875 0 25.058594 5.828125 33.136719 15.847656-20.175781 13.003906-46.09375 13.003906-66.273438 0zm79.125-11.222656c-11.320312-13.734375-28.1875-21.691407-45.988281-21.691407-17.796875 0-34.667969 7.957032-45.988281 21.691407-11.261719-12.984375-15.960938-30.40625-12.761719-47.289063h117.503906c3.199219 16.882813-1.5 34.304688-12.761718 47.289063zm0 0"/></svg>