<?xml version="1.0" encoding="iso-8859-1"?>
<!-- Generator: Adobe Illustrator 19.0.0, SVG Export Plug-In . SVG Version: 6.00 Build 0)  -->
<svg version="1.1" id="Layer_1" xmlns="http://www.w3.org/2000/svg" xmlns:xlink="http://www.w3.org/1999/xlink" x="0px" y="0px"
	 viewBox="0 0 512 512" style="enable-background:new 0 0 512 512;" xml:space="preserve">
<g transform="translate(1 1)">
	<g>
		<g>
			<path d="M476.867,135.533h-9.359c-3.86-19.681-20.878-34.133-41.841-34.133H293.4l-40.107-47.787
				c-1.707-2.56-4.267-3.413-6.827-3.413H58.733C39.96,50.2,24.6,65.56,24.6,84.333v52.288C9.921,140.435-1,153.837-1,169.667v256
				C-1,444.44,14.36,459.8,33.133,459.8h443.733c18.773,0,34.133-15.36,34.133-34.133v-256
				C511,150.893,495.64,135.533,476.867,135.533z M41.667,84.333c0-9.387,7.68-17.067,17.067-17.067H242.2l40.107,47.787
				c1.707,2.56,4.267,3.413,6.827,3.413h136.533c11.093,0,20.48,6.827,23.893,17.067H41.667V84.333z M493.933,425.667
				c0,9.387-7.68,17.067-17.067,17.067H33.133c-9.387,0-17.067-7.68-17.067-17.067v-256c0-9.387,7.68-17.067,17.067-17.067H459.8
				h17.067c9.387,0,17.067,7.68,17.067,17.067V425.667z"/>
			<path d="M161.133,186.733h-102.4c-5.12,0-8.533,3.413-8.533,8.533s3.413,8.533,8.533,8.533h102.4c5.12,0,8.533-3.413,8.533-8.533
				S166.253,186.733,161.133,186.733z"/>
			<path d="M161.133,220.867h-102.4c-5.12,0-8.533,3.413-8.533,8.533c0,5.12,3.413,8.533,8.533,8.533h102.4
				c5.12,0,8.533-3.413,8.533-8.533C169.667,224.28,166.253,220.867,161.133,220.867z"/>
		</g>
	</g>
</g>
<g>
</g>
<g>
</g>
<g>
</g>
<g>
</g>
<g>
</g>
<g>
</g>
<g>
</g>
<g>
</g>
<g>
</g>
<g>
</g>
<g>
</g>
<g>
</g>
<g>
</g>
<g>
</g>
<g>
</g>
</svg>
