<?xml version="1.0" encoding="iso-8859-1"?>
<!-- Generator: Adobe Illustrator 19.0.0, SVG Export Plug-In . SVG Version: 6.00 Build 0)  -->
<svg version="1.1" id="Capa_1" xmlns="http://www.w3.org/2000/svg" xmlns:xlink="http://www.w3.org/1999/xlink" x="0px" y="0px"
	 viewBox="0 0 512 512" style="enable-background:new 0 0 512 512;" xml:space="preserve">
<g transform="translate(1 1)">
	<g>
		<g>
			<path d="M105.667,276.333h128v128c0,11.782,9.551,21.333,21.333,21.333s21.333-9.551,21.333-21.333v-128h128
				c11.782,0,21.333-9.551,21.333-21.333s-9.551-21.333-21.333-21.333h-128v-128c0-11.782-9.551-21.333-21.333-21.333
				s-21.333,9.551-21.333,21.333v128h-128c-11.782,0-21.333,9.551-21.333,21.333S93.885,276.333,105.667,276.333z"/>
			<path d="M489.667-1H20.333C8.551-1-1,8.551-1,20.333v469.333C-1,501.449,8.551,511,20.333,511h469.333
				c11.782,0,21.333-9.551,21.333-21.333V20.333C511,8.551,501.449-1,489.667-1z M468.333,468.333H41.667V41.667h426.667V468.333z"
				/>
		</g>
	</g>
</g>
<g>
</g>
<g>
</g>
<g>
</g>
<g>
</g>
<g>
</g>
<g>
</g>
<g>
</g>
<g>
</g>
<g>
</g>
<g>
</g>
<g>
</g>
<g>
</g>
<g>
</g>
<g>
</g>
<g>
</g>
</svg>
