<svg id="Capa_1" enable-background="new 0 0 443.294 443.294" height="512" viewBox="0 0 443.294 443.294" width="512" xmlns="http://www.w3.org/2000/svg"><path d="m221.647 166.235-41.559 55.412h83.118z"/><path d="m221.647 332.471 41.559-55.412h-83.118z"/><path d="m360.177 415.588h-277.059v-138.529h-27.706v138.529c0 15.273 12.432 27.706 27.706 27.706h277.059c15.273 0 27.706-12.432 27.706-27.706v-138.529h-27.706z"/><path d="m383.824 114.882-110.824-110.824c-2.597-2.597-6.115-4.058-9.794-4.058h-180.089c-15.273 0-27.705 12.432-27.705 27.706v193.941h27.706v-193.941h166.235v83.118c0 15.273 12.432 27.706 27.706 27.706h83.118v83.118h27.706v-96.971c-.001-3.68-1.462-7.198-4.059-9.795zm-106.765-4.058v-63.529l63.529 63.529c-.001 0-63.529 0-63.529 0z"/></svg>